<?xml version="1.0" encoding="utf-8"?>
<!-- Generator: Adobe Illustrator 25.1.0, SVG Export Plug-In . SVG Version: 6.00 Build 0)  -->
<svg version="1.1" xmlns="http://www.w3.org/2000/svg" xmlns:xlink="http://www.w3.org/1999/xlink" x="0px" y="0px"
	 viewBox="0 0 512 512" style="enable-background:new 0 0 512 512;" xml:space="preserve">
<style type="text/css">
	.st0{display:none;}
	.st1{display:inline;fill:none;stroke:#000000;stroke-width:6;stroke-miterlimit:10;}
	.st2{fill:none;stroke:#FFFFFF;stroke-width:6;stroke-linecap:round;stroke-linejoin:round;stroke-miterlimit:10;}
</style>
<g id="Layer_1" class="st0">
	
		<image style="display:inline;overflow:visible;opacity:0.21;" width="860" height="626" xlink:href="../../../567-5676357_how-to-draw-anime-cat-girl-cute-anime.png"  transform="matrix(0.8873 0 0 0.8873 -116.8458 -14.9643)">
	</image>
	<path class="st1" d="M125.4,35.2"/>
</g>
<g id="Layer_2">
	<g>
		<polyline class="st2" points="133.4,305.4 132.2,298.1 128.6,288.1 127.2,278.5 126.5,273 124.4,260.8 126.1,253.5 137.7,276 
			146.7,290.3 148.4,292.3 152.3,308.3 161,330.2 169.3,342.2 186.6,359.8 178.6,342.8 173.3,328.5 186.6,344.5 209.5,356.1 
			228.4,364.4 239.1,368.4 255,365.4 276.6,353.8 295.9,342.2 311.5,324.2 320.1,308.6 328.4,288.3 325.8,315.6 322.8,333.5 
			320.8,339.8 332.1,322.6 335.7,312.6 337.9,305.7 343.7,287.7 348.7,261.4 352,235.5 341.4,305.3 348.7,290.7 358.7,270.7 
			368.6,247.5 372.3,233.5 369.3,291 370,323.2 375.3,358.1 379.6,383.4 383.5,401.6 387.9,421.8 391.4,436.8 393.2,451 
			393.2,460.5 390.3,471.2 384.6,479.4 379.5,484.9 371.1,487.8 382.1,491.1 392.3,490.7 404.7,481.6 416.9,466.3 422.7,449.9 
			424,434.2 421.3,461.2 410.3,476.7 400.3,487.8 413.4,486.2 432,477.6 443.9,463 449.5,445.5 453.7,423.5 453.7,403.4 
			453.7,381.9 452.6,357.3 451.2,336.5 449,305.9 445.9,273.2 445.3,251.2 443.3,229.1 439.3,201.6 434.4,184.4 425.3,168.2 
			417.6,154.2 410.3,145.1 401.2,138.3 391.2,132.7 386.3,131.6 395,115.9 399,105.1 404.9,84.2 408,67.9 409.8,55.7 410.5,40.8 
			405.6,47.3 398.3,56.8 392.1,63 384.1,69.8 377.5,74.7 380.8,75.2 380.1,79.8 378.4,84.7 373.7,88.2 375.9,89.8 372.2,91.3 
			377.5,93.1 373.9,96.6 368,99.1 362.4,105.1 356.4,92.4 349.6,84 337.6,74.3 322.1,68.7 312.1,67 326.1,67.9 330.5,64.8 
			318.8,55.9 300.8,49.2 285.6,45.7 269,45.3 251.2,47 253.5,50.1 244.8,47.7 234.4,47 211.4,51.9 195.9,57.7 189.9,61.2 
			189.2,48.8 189.4,39.9 184.1,34.9 176.4,37.3 169.3,44.2 164.9,49.7 160,48.1 146.9,39.3 140.3,31.5 133.9,23.1 124.8,14.5 
			118.6,9.6 115.8,8.6 112.1,7.4 111.1,9.6 111.1,24.2 109.2,40.5 106.8,59.4 106.8,76 112.8,91.7 103.8,97 97.9,102 94.9,108.3 
			94.9,111.9 103.8,113.3 111.1,121.2 112.8,123.6 108.8,125.2 98.2,133.2 90.2,143.5 78.6,161.1 71,184 66.6,207.3 63.6,230.5 
			62.3,254.4 62.3,273.7 62.3,320.2 62.3,342.5 58.3,365.7 58.3,394.6 60,413.9 65.6,431.2 67,441.2 73.3,457.4 83.9,471.1 
			97.5,481.7 109.8,489.7 128.4,499 144.4,504.6 154.7,504.6 157,504.6 141.7,497.6 131.8,489 120.1,474.4 113.8,461.4 107.7,442.5 
			107.7,423.9 109.5,397.6 111.5,376.4 115.1,356.8 117.1,340.5 125.4,363.4 130.1,382.4 131.4,403.3 136.7,388.3 137.1,375.7 
			136.4,352.8 133.4,334.8 128.8,320.2 126.1,305.3 123.1,291.7 120.5,259.1 117.7,219.1 117.7,187.9 123.9,153.1 130.3,127.7 		"/>
		<polyline class="st2" points="86,269.4 87.6,308.4 86.8,329.6 84.7,348 80.7,368.8 		"/>
		<polyline class="st2" points="120.6,292.4 120.6,316.4 120.6,326.8 118.8,336.5 117.1,340.5 		"/>
		<polyline class="st2" points="119,11.8 121.5,18.7 123.7,23.3 123.7,33.3 125.4,43 129.2,55.9 132.7,63.6 125.9,63.6 131,70.1 
			137.2,74.7 143.4,78.3 140.1,80 147.4,82.7 151.6,84.2 156.9,84.2 159.3,89.6 162.9,96.9 162.9,103.5 159.5,107.7 152.2,106.8 
			148.3,101.1 144.5,94.4 142.7,89.1 145.4,84.9 160.2,83.4 158.7,75.8 160.2,65 164.2,54.3 164.9,49.7 		"/>
		<polyline class="st2" points="161.5,79.8 171.9,69.8 177.7,65.4 174.2,77.4 173.1,78.5 171.9,79.8 		"/>
		<polyline class="st2" points="189.9,62.8 191.4,70.5 195,76.9 198.3,82.5 198.3,88.5 194.1,91.6 186.1,92.9 179.5,92.9 171.3,94 
			164.9,94 163.5,94 		"/>
		<polyline class="st2" points="150.5,107.7 148.3,115.3 144.5,121.9 140.5,126.5 133,126.5 125.2,126.5 117,123.9 112.8,123.6 		
			"/>
		<polyline class="st2" points="137.4,109.3 127.7,111.9 119,111.9 114.6,110.6 117.7,105.5 125,103.3 133.6,101.1 140.3,101.1 
			148.3,101.1 		"/>
		<polyline class="st2" points="143.5,91.4 134.2,91.4 126.6,90.2 118.3,90.8 114.6,91.4 		"/>
		<polyline class="st2" points="131.6,86.7 131.6,82.9 131.6,79.8 		"/>
		<polyline class="st2" points="125.6,68.9 127.4,72.6 127.4,76.2 		"/>
		<polyline class="st2" points="129.2,190.6 129.2,214.3 127.2,236.2 125.4,249.2 		"/>
		<polyline class="st2" points="148.7,288.9 147.4,271.6 143.6,262.1 		"/>
		<polyline class="st2" points="141.2,170.8 139.2,196.1 139.2,215.4 147.4,244.2 151.1,253.9 153.3,269.4 159.1,290 164.9,311.3 
			168.8,321.2 171.7,325 176.5,332.5 		"/>
		<polyline class="st2" points="154.9,261 163.5,278.7 168.8,284.7 161.9,262.1 161.9,245.5 161.9,216 165.7,195.6 166.9,185.9 
			168.8,194.8 168.8,200.5 174.8,212.9 182.6,226.9 186.6,232.2 187.7,219.9 189.2,200.3 193.9,181.7 197,164.4 198.5,157.6 
			201,170.8 201,181.5 203.4,198.5 209.2,213.6 217.8,228.9 228.9,239.9 233.5,244.4 231.3,234.4 228.6,226.9 233.5,230.4 
			237.7,236 258.3,254.3 250.4,242.4 246.1,236.2 242.4,229.1 239.9,223.1 246.1,230.6 251,236.2 258.5,244.2 261.4,246.1 
			258.1,237.3 255,231.3 252.1,225.3 261.4,238.6 267,243 269.2,245.7 262.1,223.1 258.8,204.5 257.4,181 258.3,160.9 262.3,176.8 
			267.4,190.6 275.8,203.6 284.9,214.3 301.3,226.9 288.2,210.9 281.4,200.1 273.8,185.2 269.2,170.8 275.2,176.8 278.3,187.5 
			285.3,197 292.2,206.5 310.8,223.8 323.4,235.5 330.3,246.1 337.2,257.7 337.2,266.3 334.3,273.8 330.7,279.8 329.9,284.7 		"/>
		<polyline class="st2" points="341.6,263.4 342.5,252.8 342.5,235.5 338.7,219.1 328.5,195.6 319.7,182.1 309,167.5 298.4,153.8 
			292,140.9 		"/>
		<polyline class="st2" points="350.2,162.6 346,151.4 342.5,141.6 342.5,126.3 342.5,116.1 341.6,106.6 341.6,104.8 		"/>
		<polyline class="st2" points="357.8,138.7 360.4,125.2 360.4,111.9 361.3,108.6 365.7,122.3 372.4,140.9 376.4,165.7 377.3,178.2 
			377.3,193 377.3,206.3 375.5,217.1 372.6,230.9 		"/>
		<polyline class="st2" points="388.3,218.5 387.4,247.9 387.4,267.6 388.3,305.1 391.2,324.5 391.2,338.7 395.6,359.3 398.7,375.7 
					"/>
		<polyline class="st2" points="403.8,318.3 403.8,257 401.4,207.2 395.6,169.7 387.4,148.3 385,143.8 		"/>
		<polyline class="st2" points="377.3,147.6 387.4,137.8 379,136.7 		"/>
		<polyline class="st2" points="367.5,117.5 379.3,112.6 373.4,111 385,106.8 		"/>
		<line class="st2" x1="380.8" y1="100.4" x2="387.4" y2="92.7"/>
		<polyline class="st2" points="332.7,65.4 356,54.8 380.8,50.5 397.2,41.2 409.8,36.5 410.5,40.8 		"/>
		<polyline class="st2" points="258.3,160.9 258.3,139.5 258.3,126.5 		"/>
		<line class="st2" x1="269.2" y1="170.8" x2="267.3" y2="155.4"/>
		<line class="st2" x1="198.3" y1="155.4" x2="202.8" y2="133.7"/>
		<line class="st2" x1="169.6" y1="186.3" x2="169.6" y2="159.8"/>
		<line class="st2" x1="239.9" y1="223.1" x2="238.1" y2="206.9"/>
		<line class="st2" x1="251" y1="223.1" x2="246" y2="211.9"/>
		<line class="st2" x1="226.1" y1="215" x2="228.6" y2="226.9"/>
		<polyline class="st2" points="200.6,83.7 221.4,79.8 246.1,81.8 277.3,90.2 301.5,98 321.1,107.7 341.6,123.9 341.6,113.9 
			332.7,106.5 309.5,85.7 280.6,72.6 255,69.1 232.4,69.1 214.8,69.1 195.5,72.6 		"/>
	</g>
</g>
</svg>
